<?xml version="1.0" encoding="UTF-8"?>
<svg width="24px" height="24px" viewBox="0 0 24 24" stroke-width="1.5" stroke="currentColor" fill="none" stroke-linecap="round" stroke-linejoin="round" version="1.1" xmlns="http://www.w3.org/2000/svg">
    <path stroke="rgb(59, 130, 246)" d="M4.8 15c-.663 0-1.2.542-1.2 1.21v1.58c0 .668.537 1.21 1.2 1.21h1.2v-4h-1.2z"/>
    <path stroke="rgb(59, 130, 246)" d="M9.6 15h-1.2v4h1.2c.663 0 1.2-.542 1.2-1.21v-1.58c0-.668-.537-1.21-1.2-1.21z"/>
    <path stroke="rgb(59, 130, 246)" d="M7.2 3v17"/>
    <path stroke="rgb(59, 130, 246)" d="M11 7c0-2.21-1.79-4-4-4S3 4.79 3 7"/>
    <path stroke="rgb(59, 130, 246)" d="M14 5v3c0 2.21-1.79 4-4 4s-4-1.79-4-4"/>
    <circle stroke="rgb(59, 130, 246)" cx="18" cy="15" r="3"/>
</svg>
